<?xml version="1.0" encoding="utf-8"?>
<!-- Generator: Adobe Illustrator 24.0.1, SVG Export Plug-In . SVG Version: 6.00 Build 0)  -->
<svg version="1.1" id="Laag_1" xmlns="http://www.w3.org/2000/svg" xmlns:xlink="http://www.w3.org/1999/xlink" x="0px" y="0px"
	 viewBox="0 0 608 167.9" style="enable-background:new 0 0 608 167.9;" xml:space="preserve">
<style type="text/css">
	.st0{fill:#010202;}
	.st1{fill:#4957A1;}
</style>
<path class="st0" d="M158,98.5l11.3-4.2c1.8,7.4,7.2,11.7,12.3,12.4c6.6,0.9,12.8-2,13.3-8.4c0.7-7-6.5-10.6-19.7-14.9
	c-9-3-15.2-10.8-14.7-19.2c0.4-7.5,5.7-15.4,15.8-17.7c10.2-2.3,23.3,0.6,28.4,13.5l-10.8,4.7c-2.8-7.3-9.5-9.3-16.1-7
	c-6,2.3-5.8,6.9-5.3,9c0.8,3.6,6,6,9.1,7.1c15.9,5.9,25.2,10.5,25.4,23.3c0.3,12.8-10.1,20.1-22.8,20.7S160.1,111.4,158,98.5z"/>
<path class="st0" d="M233.6,67.5c14.2,0,25.2,11.2,25.2,25.1s-10.9,25.6-25.2,25.6c-14.3,0-25.2-11.8-25.2-25.6
	S219.3,67.5,233.6,67.5z M233.7,107.2c6.9,0,13.3-5.5,13.3-14.6c0-8.5-6.4-14.4-13.3-14.4c-6.9,0-13.4,5.9-13.4,14.4
	C220.3,101.8,226.8,107.2,233.7,107.2z"/>
<path class="st0" d="M274.2,116.7h-12.4V46.7h12.4V116.7z"/>
<path class="st0" d="M280.4,53.2c0-4.2,3.4-7.4,7.6-7.4c4.1,0,7.6,3.2,7.6,7.4c0,4.2-3.5,7.4-7.6,7.4
	C283.8,60.6,280.4,57.4,280.4,53.2z M294.2,116.7H282v-48h12.3V116.7z"/>
<path class="st0" d="M348.5,116.6l-11.3-0.1l-0.5-5.3c-2.8,4-7.7,6.9-14.7,6.9c-10.4,0-23.3-9.6-22-27.6
	c1.2-15.4,11.6-21.6,20.2-22.6c4.8-0.6,11.7,0.3,16.6,6l-0.1-27.3l11.6-0.1L348.5,116.6z M324.2,78.4c-6.9-0.1-12.7,6-12.7,14.4
	c0,7.8,5.6,14.5,13.1,14.2c9.6-0.4,12.1-8.4,12.1-14.3C336.7,84.8,332.4,78.5,324.2,78.4z"/>
<path class="st0" d="M359.9,48.1h25.7c19.9,0,32.1,13.5,32.1,34.1c0,20.7-13.3,34.4-33.3,34.4h-25.1L359.9,48.1z M386,104.7
	c8.5,0,19.6-6.3,19.6-23.2c0-17-13.9-21.9-19.8-21.9l-14,0.1v45.2C376.9,104.8,379.9,104.7,386,104.7z"/>
<path class="st0" d="M422,53.2c0-4.2,3.4-7.4,7.6-7.4c4.1,0,7.6,3.2,7.6,7.4c0,4.2-3.5,7.4-7.6,7.4C425.4,60.6,422,57.4,422,53.2z
	 M435.9,116.7h-12.3v-48h12.3V116.7z"/>
<path class="st0" d="M478.6,68.8l11.2,0.1c-0.1,16.1,0.2,34.3,0.2,44.1c0,13.7-7.7,24.5-23,25.6c-7.9,0.6-18.9-2.5-24.4-15.5
	l11.6-2.8c2.6,4.8,6.4,7.4,11,7.4c6.7,0,12.9-3.9,12.9-17.2c-7,8-17.6,6.9-24.5,3.3c-7.5-3.9-13-12.9-12-24.6
	c1.6-19.5,23-28.5,36.7-16L478.6,68.8z M465.1,105.6c6.1,0,13.1-3.6,13.1-13.6c0-10-7.8-14.3-13.9-13.4c-6,0.8-10.9,5.8-10.9,13.4
	S458.7,105.6,465.1,105.6z"/>
<path class="st0" d="M494.3,53.2c0-4.2,3.4-7.4,7.6-7.4c4.1,0,7.6,3.2,7.6,7.4c0,4.2-3.5,7.4-7.6,7.4
	C497.7,60.6,494.3,57.4,494.3,53.2z M508.2,116.7h-12.3v-48h12.3V116.7z"/>
<path class="st0" d="M531.5,116.9c-8.6-1.8-11.3-9.3-11.3-14.8V79.4h-8.3V69.1h5.5c2.9,0,3.4-0.9,3.4-3V54.9H532v14.2h11.3v10.3
	h-11.4v14.8c0,6.6,0.2,8.7,1.5,10.3c2.2,2.5,6.3,2,8.4,0.8l3.5,10.1C541.5,116.8,537.8,118.3,531.5,116.9z"/>
<path class="st0" d="M546.4,104.9c-0.9-9.9,5.6-15,15.9-16.4c4.7-0.8,10.2-1.2,13.5-1.3c1.2-2.1,1.5-7.6-5.1-9.3
	c-6-1.5-11.3,0.6-13.1,6.7l-10.3-3c0.8-3.5,3.3-8,9.4-11.4c5-2.8,13.3-3.7,20-1.2c8.4,3.2,12.2,9.6,12.2,16.1l0.3,31.5h-11.6
	l-0.4-5.8c-2.1,3-6.5,6.8-13.2,7.1C554.2,118.4,547.4,113.1,546.4,104.9z M577.5,96.7c-9.9,0.5-19.4-1.3-19.4,6
	c0,4.6,4.5,7,10.6,5.7C575.3,107,578.2,101.5,577.5,96.7z"/>
<path class="st0" d="M608,116.7h-12.4V46.7H608V116.7z"/>
<g>
	
		<rect x="-9.2" y="76.3" transform="matrix(0.7071 -0.7071 0.7071 0.7071 -47.3965 56.2252)" class="st1" width="106.8" height="18.1"/>
	
		<rect x="-6.5" y="35.1" transform="matrix(0.7071 -0.7071 0.7071 0.7071 -17.4929 46.1115)" class="st1" width="106.8" height="18.1"/>
	
		<rect x="29.2" y="114.7" transform="matrix(0.7071 -0.7071 0.7071 0.7071 -63.3064 94.6352)" class="st1" width="106.8" height="18.1"/>
	
		<rect x="31.9" y="73.5" transform="matrix(0.7071 -0.7071 0.7071 0.7071 -33.4028 84.5216)" class="st1" width="106.8" height="18.1"/>
</g>
</svg>
